<?xml version="1.0" standalone="no"?><!DOCTYPE svg PUBLIC "-//W3C//DTD SVG 1.1//EN" "http://www.w3.org/Graphics/SVG/1.1/DTD/svg11.dtd"><svg t="1517996222397" class="icon" style="" viewBox="0 0 1212 1024" version="1.1" xmlns="http://www.w3.org/2000/svg" p-id="2892" xmlns:xlink="http://www.w3.org/1999/xlink" width="236.71875" height="200"><defs><style type="text/css"></style></defs><path d="M743.76559 230.803907c-9.847633 0-19.695267-3.769797-27.196394-11.270924-15.040721-15.040721-15.040721-39.352066 0-54.392787l153.869271-153.869271c15.040721-15.040721 39.352066-15.040721 54.392787 0s15.040721 39.352066 0 54.392787l-153.869271 153.869271C763.460856 227.03411 753.613223 230.803907 743.76559 230.803907z" p-id="2893"></path><path d="M464.223591 230.803907c-9.847633 0-19.695267-3.769797-27.196394-11.270924l-153.869271-153.869271c-15.040721-15.040721-15.040721-39.352066 0-54.392787s39.352066-15.040721 54.392787 0l153.869271 153.869271c15.040721 15.040721 15.040721 39.352066 0 54.392787C483.918858 227.03411 474.071225 230.803907 464.223591 230.803907z" p-id="2894"></path><path d="M1018.960781 1024 192.336589 1024c-106.054395 0-192.336589-86.282194-192.336589-192.336589L0 362.054395c0-106.054395 86.282194-192.336589 192.336589-192.336589l826.624192 0c106.054395 0 192.336589 86.282194 192.336589 192.336589L1211.29737 831.663411C1211.29737 937.679339 1125.015177 1024 1018.960781 1024zM192.336589 246.652442c-63.624944 0-115.401953 51.77701-115.401953 115.401953L76.934636 831.663411c0 63.624944 51.77701 115.401953 115.401953 115.401953l826.624192 0c63.624944 0 115.401953-51.77701 115.401953-115.401953L1134.362735 362.054395c0-63.624944-51.77701-115.401953-115.401953-115.401953L192.336589 246.652442z" p-id="2895"></path><path d="M522.809316 781.463561c-10.347708 0-20.580015-2.57731-29.658302-7.424192-20.464613-11.001653-33.120361-32.197145-33.120361-55.35447L460.030654 475.840721c0-23.157325 12.655748-44.352817 33.081893-55.316003 20.50308-11.04012 45.199098-9.770699 64.548159 3.038918l182.14275 121.441322c17.50263 11.655597 27.96574 31.196995 27.96574 52.238618 0 21.041623-10.424643 40.58302-27.96574 52.238618l-182.14275 121.441322C547.312998 777.847633 535.23426 781.463561 522.809316 781.463561zM536.926822 502.229301l0 190.02855 142.521412-95.014275L536.926822 502.229301z" p-id="2896"></path></svg>